<?xml version="1.0" encoding="utf-8"?>
<!-- Generator: Adobe Illustrator 26.0.2, SVG Export Plug-In . SVG Version: 6.00 Build 0)  -->
<svg version="1.1" id="Layer_1" xmlns="http://www.w3.org/2000/svg" xmlns:xlink="http://www.w3.org/1999/xlink" x="0px" y="0px"
	 viewBox="0 0 595.5 525.1" style="enable-background:new 0 0 595.5 525.1;" xml:space="preserve">
<style type="text/css">
	.st0{fill:#FFFFFF;}
	.st1{clip-path:url(#SVGID_00000092439198506858697760000009521902869523342269_);}
	.st2{clip-path:url(#SVGID_00000175307461336385970840000007558953916153435032_);}
	.st3{clip-path:url(#SVGID_00000008849572613565303040000010948056801472730812_);}
	.st4{clip-path:url(#SVGID_00000016070007041482130780000014192509807645305244_);}
	.st5{clip-path:url(#SVGID_00000134949454942597077330000015329326733177453213_);}
	.st6{clip-path:url(#SVGID_00000121264911138146548910000010257909973769234614_);}
	.st7{clip-path:url(#SVGID_00000018930175303190836890000008617665079420529280_);}
	.st8{clip-path:url(#SVGID_00000098193345136048417800000005681551533606078861_);}
	.st9{clip-path:url(#SVGID_00000182529691365256721200000017108961013581119134_);}
</style>
<g>
	<g>
		<g>
			<path class="st0" d="M0,427.7l29.2-80.6h11.7L70,427.7H59.4l-7.9-22.1H18.6l-8.1,22.1H0z M21.2,396.1h27.6l-13.7-38.9L21.2,396.1
				z"/>
		</g>
	</g>
</g>
<g>
	<g>
		<g>
			<path class="st0" d="M96.3,347.1c0.3,0,1.1,0,2.4,0c1.3,0,2.9,0,4.8,0c1.9,0,3.9,0,5.9,0c2,0,3.9,0.1,5.6,0.1
				c9.9,0.1,17.9,1.8,24,4.8c6.2,3.1,10.7,7.5,13.5,13.4c2.9,5.8,4.3,13,4.3,21.5c0,8.9-1.6,16.4-4.7,22.5
				c-3.1,6.1-7.8,10.6-14.2,13.7c-6.3,3.1-14.4,4.6-24.2,4.6H96.3V347.1z M106.9,355.9v62.9h7.1c6.7,0,12.4-1,17.2-3.1
				c4.8-2.1,8.5-5.4,11.1-10.1c2.6-4.6,3.9-10.9,3.9-18.6c0-7.8-1.3-13.9-3.8-18.4c-2.5-4.5-6.1-7.8-10.8-9.7
				c-4.7-1.9-10.4-2.9-17-2.9H106.9z"/>
		</g>
	</g>
</g>
<g>
	<g>
		<g>
			<path class="st0" d="M245.8,347.1l-28.6,80.6h-12.4l-28.1-80.6h10.2l24.1,68.8l24.6-68.8H245.8z"/>
		</g>
	</g>
</g>
<g>
	<g>
		<g>
			<path class="st0" d="M264.2,427.7l29.2-80.6H305l29.1,80.6h-10.5l-7.9-22.1h-32.9l-8.1,22.1H264.2z M285.3,396.1h27.6l-13.7-38.9
				L285.3,396.1z"/>
		</g>
	</g>
</g>
<g>
	<g>
		<g>
			<path class="st0" d="M412.9,347.1h10.3v80.6h-9.2l-43.3-63.5v63.5h-10.3v-80.6h9.9l42.6,62.7V347.1z"/>
		</g>
	</g>
</g>
<g>
	<g>
		<g>
			<path class="st0" d="M485.3,346c5.7,0,10.7,1.2,15.1,3.5c4.4,2.4,7.9,5.5,10.6,9.4c2.7,3.9,4.3,8.3,4.7,13h-11
				c-0.6-3.2-1.7-6-3.4-8.6c-1.7-2.6-3.9-4.6-6.6-6.1c-2.7-1.5-6-2.3-9.8-2.3c-4.9,0-9,1.1-12.3,3.4c-3.4,2.3-5.9,5.8-7.6,10.6
				c-1.7,4.8-2.6,10.8-2.6,18.3c0,11.2,1.9,19.5,5.8,24.7c3.8,5.3,9.4,7.9,16.8,7.9c3.8,0,7-0.8,9.8-2.4c2.7-1.6,4.9-3.7,6.6-6.4
				c1.7-2.7,2.8-5.6,3.4-8.7h11c-0.4,3.4-1.3,6.7-2.8,9.9c-1.4,3.2-3.4,6-5.9,8.5c-2.5,2.5-5.5,4.5-9.2,5.9
				c-3.6,1.4-7.8,2.2-12.6,2.2c-7.2,0-13.4-1.6-18.5-5c-5.1-3.3-9-8.1-11.7-14.3c-2.7-6.2-4-13.7-4-22.5c0-8.7,1.3-16.2,4-22.3
				c2.7-6.1,6.6-10.8,11.7-14C471.9,347.6,478.1,346,485.3,346z"/>
		</g>
	</g>
</g>
<g>
	<g>
		<g>
			<path class="st0" d="M543.6,427.7v-80.6h50.8l-0.1,9.1H554v26.3h36.4v9h-36.5v26.9l41.6,0.1v9.2H543.6z"/>
		</g>
	</g>
</g>
<g>
	<g>
		<g>
			<path class="st0" d="M51.8,515.8v-39.5h7l11.9,32.6l12.1-32.6h7v39.5h-5.2v-31.9L73,515.8h-4.7l-11.4-31.6v31.6H51.8z"/>
		</g>
	</g>
</g>
<g>
	<g>
		<g>
			<path class="st0" d="M109.5,516.3c-1.5,0-2.9-0.2-4.2-0.6c-1.3-0.4-2.5-1-3.5-1.8c-1-0.8-1.8-1.8-2.4-3c-0.6-1.2-0.9-2.6-0.9-4.2
				v-19.2h5v18.7c0,1.8,0.6,3.3,1.7,4.5c1.1,1.1,2.9,1.7,5.2,1.7c2.1,0,3.7-0.5,5-1.6c1.3-1.1,1.9-2.7,1.9-4.8v-18.4h5v28.2h-4
				l-0.5-5.4c-0.3,1.4-0.9,2.6-1.8,3.4c-0.8,0.9-1.8,1.5-3,1.9C112.1,516.2,110.8,516.4,109.5,516.3z"/>
		</g>
	</g>
</g>
<g>
	<g>
		<g>
			<path class="st0" d="M140.4,516.3c-2,0-3.8-0.3-5.5-0.9c-1.7-0.6-3.1-1.6-4.2-2.9c-1.1-1.3-1.8-3-2.1-5h4.6
				c0.3,1.1,0.7,2,1.4,2.8c0.7,0.7,1.5,1.3,2.5,1.7c1,0.4,2.1,0.6,3.3,0.6c1.9,0,3.4-0.4,4.6-1.1c1.2-0.7,1.8-1.8,1.8-3.3
				c0-1-0.3-1.9-0.9-2.5c-0.6-0.6-1.5-1.1-2.8-1.4l-5.9-1.4c-2.3-0.6-4.1-1.4-5.5-2.6c-1.4-1.2-2-2.8-2-4.9c0-1.7,0.4-3.1,1.2-4.4
				c0.8-1.3,2-2.3,3.6-3c1.6-0.7,3.6-1.1,6-1.1c3.1,0,5.5,0.7,7.4,2.1c1.9,1.4,2.9,3.4,2.9,6h-4.5c-0.2-1.3-0.8-2.4-1.8-3.2
				c-1-0.8-2.4-1.2-4.1-1.2c-1.8,0-3.3,0.4-4.4,1.1c-1.1,0.7-1.7,1.8-1.7,3.3c0,1,0.4,1.8,1.2,2.4c0.8,0.6,2,1.1,3.5,1.4l5.7,1.4
				c1.3,0.3,2.4,0.8,3.2,1.4c0.9,0.6,1.5,1.2,2,1.9c0.5,0.7,0.9,1.4,1.1,2.2c0.2,0.8,0.3,1.5,0.3,2.2c0,1.7-0.4,3.2-1.3,4.5
				c-0.9,1.2-2.1,2.2-3.7,2.9C144.7,516,142.7,516.3,140.4,516.3z"/>
		</g>
	</g>
</g>
<g>
	<g>
		<g>
			<path class="st0" d="M163.8,487.5v28.2h-4.9v-28.2H163.8z M163.9,476.3v5.2h-5.2v-5.2H163.9z"/>
		</g>
	</g>
</g>
<g>
	<g>
		<g>
			<path class="st0" d="M183.9,487c2,0,3.8,0.4,5.5,1.2c1.6,0.8,3,1.9,4,3.3c1,1.4,1.7,3.1,1.9,5h-4.5c-0.2-1-0.5-1.9-1.1-2.7
				c-0.6-0.8-1.4-1.5-2.3-2c-1-0.5-2.1-0.7-3.4-0.7c-2.4,0-4.4,0.9-5.9,2.6c-1.5,1.7-2.3,4.4-2.3,8c0,3.3,0.7,5.9,2.1,7.8
				c1.4,1.9,3.5,2.9,6.2,2.9c1.3,0,2.4-0.2,3.4-0.8c1-0.5,1.7-1.2,2.3-2c0.6-0.8,1-1.7,1.1-2.7h4.4c-0.2,1.9-0.9,3.5-1.9,4.9
				c-1,1.4-2.4,2.5-4,3.2c-1.6,0.8-3.4,1.1-5.4,1.1c-2.5,0-4.8-0.6-6.7-1.7c-2-1.1-3.5-2.8-4.6-4.9c-1.1-2.2-1.7-4.8-1.7-8
				c0-2.9,0.5-5.5,1.5-7.7c1-2.2,2.5-3.9,4.4-5.2C178.8,487.6,181.2,487,183.9,487z"/>
		</g>
	</g>
</g>
<g>
	<g>
		<g>
			<path class="st0" d="M211.8,480.9v-4.6h29.9v4.6h-12v34.9h-5.1v-34.9H211.8z"/>
		</g>
	</g>
</g>
<g>
	<g>
		<g>
			<path class="st0" d="M250.8,502.8c0,1.8,0.3,3.4,0.9,4.9c0.6,1.4,1.5,2.6,2.7,3.5c1.2,0.9,2.7,1.3,4.5,1.3c1.8,0,3.4-0.4,4.7-1.2
				c1.3-0.8,2.1-2.1,2.5-3.6h4.8c-0.3,1.9-1.1,3.5-2.3,4.8c-1.2,1.3-2.6,2.3-4.3,3c-1.7,0.7-3.4,1-5.2,1c-2.6,0-5-0.6-7-1.7
				c-2-1.1-3.6-2.8-4.7-4.9c-1.1-2.2-1.7-4.7-1.7-7.7c0-3,0.5-5.6,1.5-7.8c1-2.2,2.5-4,4.4-5.2c1.9-1.3,4.3-1.9,7-1.9
				c2.7,0,4.9,0.6,6.7,1.7c1.8,1.1,3.2,2.8,4.2,4.9c1,2.1,1.4,4.6,1.4,7.4v1.9H250.8z M250.8,499.4h15.4c0-1.6-0.3-3.1-0.8-4.4
				c-0.5-1.3-1.4-2.3-2.5-3.1c-1.1-0.8-2.5-1.1-4.2-1.1c-1.8,0-3.2,0.4-4.4,1.3c-1.2,0.8-2,1.9-2.6,3.2
				C251.1,496.7,250.8,498,250.8,499.4z"/>
		</g>
	</g>
</g>
<g>
	<g>
		<g>
			<path class="st0" d="M289.2,487c2,0,3.8,0.4,5.5,1.2c1.6,0.8,3,1.9,4,3.3c1,1.4,1.7,3.1,1.9,5h-4.5c-0.2-1-0.5-1.9-1.1-2.7
				c-0.6-0.8-1.4-1.5-2.3-2c-1-0.5-2.1-0.7-3.4-0.7c-2.4,0-4.4,0.9-5.9,2.6c-1.5,1.7-2.3,4.4-2.3,8c0,3.3,0.7,5.9,2.1,7.8
				c1.4,1.9,3.5,2.9,6.2,2.9c1.3,0,2.4-0.2,3.4-0.8c1-0.5,1.7-1.2,2.3-2c0.6-0.8,1-1.7,1.1-2.7h4.4c-0.2,1.9-0.9,3.5-1.9,4.9
				c-1,1.4-2.4,2.5-4,3.2c-1.6,0.8-3.4,1.1-5.4,1.1c-2.5,0-4.8-0.6-6.7-1.7c-2-1.1-3.5-2.8-4.6-4.9c-1.1-2.2-1.7-4.8-1.7-8
				c0-2.9,0.5-5.5,1.5-7.7c1-2.2,2.5-3.9,4.4-5.2C284.1,487.6,286.4,487,289.2,487z"/>
		</g>
	</g>
</g>
<g>
	<g>
		<g>
			<path class="st0" d="M307.4,515.8v-40.6h4.9v16.5c0.5-0.8,1.1-1.5,1.9-2.2c0.8-0.7,1.8-1.2,2.9-1.7c1.1-0.4,2.5-0.6,4-0.6
				c1.8,0,3.5,0.3,5,1c1.5,0.7,2.7,1.6,3.5,2.9c0.9,1.3,1.3,2.8,1.3,4.5v20.2h-5v-19.2c0-1.7-0.6-3-1.7-3.9
				c-1.2-0.9-2.7-1.4-4.5-1.4c-1.2,0-2.4,0.2-3.5,0.6c-1.1,0.4-2,1-2.7,1.9c-0.7,0.8-1,1.9-1,3.2v18.8H307.4z"/>
		</g>
	</g>
</g>
<g>
	<g>
		<g>
			<path class="st0" d="M338.9,515.8v-28.2h4.9v4.1c0.4-0.8,1.1-1.5,1.9-2.2c0.8-0.7,1.8-1.3,3-1.7c1.2-0.4,2.5-0.6,4-0.6
				c1.8,0,3.4,0.4,4.9,1.1c1.5,0.7,2.7,1.8,3.6,3.3c0.9,1.5,1.4,3.4,1.4,5.8v18.5h-5v-18c0-2.2-0.6-3.8-1.8-4.9
				c-1.2-1.1-2.7-1.6-4.5-1.6c-1.3,0-2.5,0.2-3.6,0.6c-1.1,0.4-2,1-2.7,1.9c-0.7,0.8-1,1.9-1,3.1v18.9H338.9z"/>
		</g>
	</g>
</g>
<g>
	<g>
		<g>
			<path class="st0" d="M381.7,516.3c-2.6,0-4.9-0.6-6.8-1.7c-1.9-1.1-3.5-2.8-4.5-4.9c-1.1-2.2-1.6-4.8-1.6-8
				c0-2.9,0.5-5.5,1.5-7.8c1-2.2,2.5-4,4.4-5.2c1.9-1.2,4.3-1.8,7.1-1.8c2.6,0,4.9,0.6,6.8,1.7c1.9,1.1,3.4,2.8,4.5,5
				c1.1,2.2,1.6,4.9,1.6,8c0,2.9-0.5,5.4-1.5,7.6c-1,2.2-2.4,3.9-4.3,5.1C386.8,515.7,384.5,516.3,381.7,516.3z M381.7,512.3
				c1.7,0,3.1-0.4,4.3-1.3c1.2-0.9,2-2.1,2.6-3.7c0.6-1.6,0.9-3.5,0.9-5.7c0-2-0.3-3.8-0.8-5.5c-0.5-1.6-1.4-2.9-2.5-3.8
				c-1.2-0.9-2.7-1.4-4.5-1.4c-1.7,0-3.2,0.4-4.3,1.3s-2.1,2.1-2.7,3.7c-0.6,1.6-0.9,3.5-0.9,5.8c0,2,0.3,3.8,0.8,5.4
				c0.6,1.6,1.4,2.9,2.6,3.8C378.3,511.9,379.8,512.3,381.7,512.3z"/>
		</g>
	</g>
</g>
<g>
	<g>
		<g>
			<path class="st0" d="M408.3,516.1c-1.5,0-2.8-0.2-3.7-0.6c-0.9-0.4-1.7-1-2.2-1.7c-0.5-0.7-0.8-1.5-1-2.4
				c-0.2-0.9-0.2-1.9-0.2-2.9v-33.3h5V508c0,1.4,0.3,2.5,0.8,3.2c0.6,0.7,1.3,1.1,2.3,1.2l1.5,0v3.3c-0.4,0.1-0.9,0.2-1.3,0.3
				C409.1,516.1,408.7,516.1,408.3,516.1z"/>
		</g>
	</g>
</g>
<g>
	<g>
		<g>
			<path class="st0" d="M428.7,516.3c-2.6,0-4.9-0.6-6.8-1.7c-1.9-1.1-3.5-2.8-4.5-4.9c-1.1-2.2-1.6-4.8-1.6-8
				c0-2.9,0.5-5.5,1.5-7.8c1-2.2,2.5-4,4.4-5.2c1.9-1.2,4.3-1.8,7.1-1.8c2.6,0,4.9,0.6,6.8,1.7c1.9,1.1,3.4,2.8,4.5,5
				c1.1,2.2,1.6,4.9,1.6,8c0,2.9-0.5,5.4-1.5,7.6c-1,2.2-2.4,3.9-4.3,5.1C433.8,515.7,431.5,516.3,428.7,516.3z M428.7,512.3
				c1.7,0,3.1-0.4,4.3-1.3c1.2-0.9,2-2.1,2.6-3.7c0.6-1.6,0.9-3.5,0.9-5.7c0-2-0.3-3.8-0.8-5.5c-0.5-1.6-1.4-2.9-2.5-3.8
				c-1.2-0.9-2.7-1.4-4.5-1.4c-1.7,0-3.2,0.4-4.3,1.3s-2.1,2.1-2.7,3.7c-0.6,1.6-0.9,3.5-0.9,5.8c0,2,0.3,3.8,0.8,5.4
				c0.6,1.6,1.4,2.9,2.6,3.8C425.3,511.9,426.8,512.3,428.7,512.3z"/>
		</g>
	</g>
</g>
<g>
	<g>
		<g>
			<path class="st0" d="M460.1,525.1c-4.4,0-7.9-0.6-10.4-1.9c-2.5-1.3-3.7-3.1-3.7-5.5c0-1,0.2-1.9,0.7-2.6c0.5-0.7,1-1.3,1.7-1.8
				c0.7-0.5,1.3-0.9,1.8-1.1c0.6-0.3,0.9-0.5,1.1-0.6c-0.3-0.2-0.7-0.4-1.2-0.7c-0.5-0.3-0.9-0.6-1.2-1.1c-0.3-0.5-0.5-1.1-0.5-1.8
				c0-0.9,0.4-1.7,1.2-2.5c0.8-0.8,2.1-1.3,3.7-1.7c-1.7-0.8-2.9-2-3.9-3.3c-0.9-1.4-1.4-2.9-1.4-4.5c0-1.8,0.5-3.4,1.5-4.8
				c1-1.4,2.4-2.4,4.2-3.1s4-1.1,6.6-1.1c1.8,0,3.4,0.2,4.6,0.6c1.3,0.4,2.4,1,3.5,1.8c0.3-0.1,0.8-0.3,1.4-0.6
				c0.6-0.3,1.3-0.6,2.1-0.9c0.8-0.3,1.5-0.6,2.2-0.9c0.7-0.3,1.2-0.5,1.6-0.6l0,4.7l-5,0.9c0.3,0.6,0.5,1.2,0.7,1.9
				c0.2,0.7,0.3,1.3,0.3,1.9c0,1.7-0.4,3.2-1.3,4.5c-0.9,1.3-2.2,2.4-3.9,3.2c-1.7,0.8-3.9,1.2-6.5,1.2c-0.2,0-0.5,0-0.8,0
				c-0.3,0-0.6,0-0.9,0c-1.9,0.1-3.3,0.3-4,0.6c-0.7,0.4-1.1,0.8-1.1,1.2c0,0.5,0.4,0.9,1.2,1.1c0.8,0.2,2.2,0.4,4.2,0.5
				c0.7,0,1.6,0.1,2.6,0.1c1.1,0.1,2.2,0.1,3.5,0.2c3,0.2,5.3,0.9,6.9,2.3c1.6,1.3,2.4,3.1,2.4,5.4c0,2.6-1.2,4.7-3.5,6.3
				C468.2,524.3,464.7,525.1,460.1,525.1z M461,521.9c2.6,0,4.6-0.4,6-1.2c1.4-0.8,2.1-2,2.1-3.6c0-1.1-0.4-2-1.3-2.8
				s-2.1-1.1-3.9-1.2l-7.9-0.5c-0.7,0-1.5,0.2-2.2,0.5c-0.8,0.4-1.4,0.9-2,1.6c-0.5,0.7-0.8,1.5-0.8,2.3c0,1.5,0.8,2.6,2.4,3.5
				C455,521.5,457.6,521.9,461,521.9z M460.1,501.7c2,0,3.7-0.5,4.9-1.4c1.2-0.9,1.9-2.4,1.9-4.2c0-1.9-0.6-3.4-1.9-4.4
				c-1.2-1-2.9-1.5-4.9-1.5c-2.1,0-3.7,0.5-5,1.5c-1.3,1-1.9,2.5-1.9,4.4c0,1.8,0.6,3.2,1.8,4.2
				C456.2,501.2,457.9,501.7,460.1,501.7z"/>
		</g>
	</g>
</g>
<g>
	<g>
		<g>
			<path class="st0" d="M487.5,487.5v28.2h-4.9v-28.2H487.5z M487.6,476.3v5.2h-5.2v-5.2H487.6z"/>
		</g>
	</g>
</g>
<g>
	<g>
		<g>
			<path class="st0" d="M500,502.8c0,1.8,0.3,3.4,0.9,4.9c0.6,1.4,1.5,2.6,2.7,3.5c1.2,0.9,2.7,1.3,4.5,1.3c1.8,0,3.4-0.4,4.7-1.2
				c1.3-0.8,2.1-2.1,2.5-3.6h4.8c-0.3,1.9-1.1,3.5-2.3,4.8c-1.2,1.3-2.6,2.3-4.3,3c-1.7,0.7-3.4,1-5.2,1c-2.6,0-5-0.6-7-1.7
				c-2-1.1-3.6-2.8-4.7-4.9c-1.1-2.2-1.7-4.7-1.7-7.7c0-3,0.5-5.6,1.5-7.8c1-2.2,2.5-4,4.4-5.2c1.9-1.3,4.3-1.9,7-1.9
				c2.7,0,4.9,0.6,6.7,1.7c1.8,1.1,3.2,2.8,4.2,4.9c1,2.1,1.4,4.6,1.4,7.4v1.9H500z M500.1,499.4h15.4c0-1.6-0.3-3.1-0.8-4.4
				c-0.5-1.3-1.4-2.3-2.5-3.1c-1.1-0.8-2.5-1.1-4.2-1.1c-1.8,0-3.2,0.4-4.4,1.3c-1.2,0.8-2,1.9-2.6,3.2
				C500.3,496.7,500,498,500.1,499.4z"/>
		</g>
	</g>
</g>
<g>
	<g>
		<g>
			<path class="st0" d="M537.2,516.3c-2,0-3.8-0.3-5.5-0.9c-1.7-0.6-3.1-1.6-4.2-2.9c-1.1-1.3-1.8-3-2.1-5h4.6
				c0.3,1.1,0.7,2,1.4,2.8c0.7,0.7,1.5,1.3,2.5,1.7c1,0.4,2.1,0.6,3.3,0.6c1.9,0,3.4-0.4,4.6-1.1c1.2-0.7,1.8-1.8,1.8-3.3
				c0-1-0.3-1.9-0.9-2.5c-0.6-0.6-1.5-1.1-2.8-1.4l-5.9-1.4c-2.3-0.6-4.1-1.4-5.5-2.6c-1.4-1.2-2-2.8-2-4.9c0-1.7,0.4-3.1,1.2-4.4
				c0.8-1.3,2-2.3,3.6-3c1.6-0.7,3.6-1.1,6-1.1c3.1,0,5.5,0.7,7.4,2.1c1.9,1.4,2.9,3.4,2.9,6h-4.5c-0.2-1.3-0.8-2.4-1.8-3.2
				c-1-0.8-2.4-1.2-4.1-1.2c-1.8,0-3.3,0.4-4.4,1.1c-1.1,0.7-1.7,1.8-1.7,3.3c0,1,0.4,1.8,1.2,2.4c0.8,0.6,2,1.1,3.5,1.4l5.7,1.4
				c1.3,0.3,2.4,0.8,3.2,1.4c0.9,0.6,1.5,1.2,2,1.9c0.5,0.7,0.9,1.4,1.1,2.2c0.2,0.8,0.3,1.5,0.3,2.2c0,1.7-0.4,3.2-1.3,4.5
				c-0.9,1.2-2.1,2.2-3.7,2.9C541.5,516,539.5,516.3,537.2,516.3z"/>
		</g>
	</g>
</g>
<g>
	<defs>
		<rect id="SVGID_1_" x="87.9" y="226.5" width="22.8" height="35.8"/>
	</defs>
	<clipPath id="SVGID_00000111185713950026592400000015500943433542771351_">
		<use xlink:href="#SVGID_1_"  style="overflow:visible;"/>
	</clipPath>
	<g style="clip-path:url(#SVGID_00000111185713950026592400000015500943433542771351_);">
		<path class="st0" d="M99.2,226.7c-6.3,0-11.3,5.1-11.3,11.3v45.3c0,6.3,5.1,11.3,11.3,11.3c6.3,0,11.3-5.1,11.3-11.3V238
			C110.6,231.8,105.5,226.7,99.2,226.7z"/>
	</g>
</g>
<g>
	<defs>
		<rect id="SVGID_00000112624929676130741400000009412172966069702277_" x="132.7" y="180.5" width="24" height="81.8"/>
	</defs>
	<clipPath id="SVGID_00000073720044485972754760000008677629115184069249_">
		<use xlink:href="#SVGID_00000112624929676130741400000009412172966069702277_"  style="overflow:visible;"/>
	</clipPath>
	<g style="clip-path:url(#SVGID_00000073720044485972754760000008677629115184069249_);">
		<path class="st0" d="M144.6,181.4c-6.3,0-11.3,5.1-11.3,11.3v136c0,6.3,5.1,11.3,11.3,11.3c6.3,0,11.3-5.1,11.3-11.3v-136
			C156,186.4,150.9,181.4,144.6,181.4z"/>
	</g>
</g>
<g>
	<defs>
		<rect id="SVGID_00000122689776504620505810000000912278666918133377_" x="177.7" y="203.5" width="24" height="58.8"/>
	</defs>
	<clipPath id="SVGID_00000067222967379861738580000018014689630730116758_">
		<use xlink:href="#SVGID_00000122689776504620505810000000912278666918133377_"  style="overflow:visible;"/>
	</clipPath>
	<g style="clip-path:url(#SVGID_00000067222967379861738580000018014689630730116758_);">
		<path class="st0" d="M190,204c-6.3,0-11.3,5.1-11.3,11.3V306c0,6.3,5.1,11.3,11.3,11.3c6.3,0,11.3-5.1,11.3-11.3v-90.7
			C201.4,209.1,196.3,204,190,204z"/>
	</g>
</g>
<g>
	<defs>
		<rect id="SVGID_00000075122877291087848260000001067282572137167804_" x="223.7" y="112.5" width="23" height="149.8"/>
	</defs>
	<clipPath id="SVGID_00000067944836130662715350000015490915226179432327_">
		<use xlink:href="#SVGID_00000075122877291087848260000001067282572137167804_"  style="overflow:visible;"/>
	</clipPath>
	<g style="clip-path:url(#SVGID_00000067944836130662715350000015490915226179432327_);">
		<path class="st0" d="M235.4,113.3c-6.3,0-11.3,5.1-11.3,11.3v272c0,6.3,5.1,11.3,11.3,11.3s11.3-5.1,11.3-11.3v-272
			C246.7,118.4,241.7,113.3,235.4,113.3z"/>
	</g>
</g>
<g>
	<defs>
		<rect id="SVGID_00000084496846166022168870000016958622106838658449_" x="268.7" y="203.5" width="24" height="58.8"/>
	</defs>
	<clipPath id="SVGID_00000085950959597516780400000013559045807421262503_">
		<use xlink:href="#SVGID_00000084496846166022168870000016958622106838658449_"  style="overflow:visible;"/>
	</clipPath>
	<g style="clip-path:url(#SVGID_00000085950959597516780400000013559045807421262503_);">
		<path class="st0" d="M280.8,204c-6.3,0-11.3,5.1-11.3,11.3V306c0,6.3,5.1,11.3,11.3,11.3s11.3-5.1,11.3-11.3v-90.7
			C292.1,209.1,287,204,280.8,204z"/>
	</g>
</g>
<g>
	<defs>
		<rect id="SVGID_00000142859900186606283900000001565387315572522916_" x="313.7" width="23" height="262.3"/>
	</defs>
	<clipPath id="SVGID_00000046320499327342248480000016370846156605403064_">
		<use xlink:href="#SVGID_00000142859900186606283900000001565387315572522916_"  style="overflow:visible;"/>
	</clipPath>
	<g style="clip-path:url(#SVGID_00000046320499327342248480000016370846156605403064_);">
		<path class="st0" d="M325.2,0c-6.3,0-11.3,5.1-11.3,11.3V510c0,6.3,5.1,11.3,11.3,11.3c6.3,0,11.3-5.1,11.3-11.3V11.3
			C336.5,5.1,331.4,0,325.2,0z"/>
	</g>
</g>
<g>
	<defs>
		<rect id="SVGID_00000029735760836858335970000002214265515454681015_" x="358.7" y="90.5" width="24" height="171.8"/>
	</defs>
	<clipPath id="SVGID_00000092450375233983731040000000737099669146827668_">
		<use xlink:href="#SVGID_00000029735760836858335970000002214265515454681015_"  style="overflow:visible;"/>
	</clipPath>
	<g style="clip-path:url(#SVGID_00000092450375233983731040000000737099669146827668_);">
		<path class="st0" d="M370.6,90.7c-6.3,0-11.3,5.1-11.3,11.3v317.4c0,6.3,5.1,11.3,11.3,11.3c6.3,0,11.3-5.1,11.3-11.3V102
			C381.9,95.8,376.8,90.7,370.6,90.7z"/>
	</g>
</g>
<g>
	<defs>
		<rect id="SVGID_00000156587034179214170100000008310784318749374110_" x="403.7" y="135.5" width="24" height="126.8"/>
	</defs>
	<clipPath id="SVGID_00000134933147925206096360000007499583374989760693_">
		<use xlink:href="#SVGID_00000156587034179214170100000008310784318749374110_"  style="overflow:visible;"/>
	</clipPath>
	<g style="clip-path:url(#SVGID_00000134933147925206096360000007499583374989760693_);">
		<path class="st0" d="M415.9,136c-6.3,0-11.3,5.1-11.3,11.3V374c0,6.3,5.1,11.3,11.3,11.3s11.3-5.1,11.3-11.3V147.3
			C427.3,141.1,422.2,136,415.9,136z"/>
	</g>
</g>
<g>
	<defs>
		<rect id="SVGID_00000065055964749657332330000014051329410579637664_" x="449.7" y="203.5" width="23" height="58.8"/>
	</defs>
	<clipPath id="SVGID_00000025423792375655357780000001281885556060120509_">
		<use xlink:href="#SVGID_00000065055964749657332330000014051329410579637664_"  style="overflow:visible;"/>
	</clipPath>
	<g style="clip-path:url(#SVGID_00000025423792375655357780000001281885556060120509_);">
		<path class="st0" d="M461.3,204c-6.3,0-11.3,5.1-11.3,11.3V306c0,6.3,5.1,11.3,11.3,11.3s11.3-5.1,11.3-11.3v-90.7
			C472.7,209.1,467.6,204,461.3,204z"/>
	</g>
</g>
</svg>
